<svg width="25" height="24" viewBox="0 0 25 24" fill="none" xmlns="http://www.w3.org/2000/svg">
<path d="M12.25 2C6.829 2 2.25 6.579 2.25 12C2.25 17.421 6.829 22 12.25 22C17.671 22 22.25 17.421 22.25 12C22.25 6.579 17.671 2 12.25 2ZM12.25 7C13.977 7 15.25 8.272 15.25 10C15.25 11.728 13.977 13 12.25 13C10.524 13 9.25 11.728 9.25 10C9.25 8.272 10.524 7 12.25 7ZM7.144 16.772C8.041 15.452 9.537 14.572 11.25 14.572H13.25C14.964 14.572 16.459 15.452 17.356 16.772C16.078 18.14 14.265 19 12.25 19C10.235 19 8.422 18.14 7.144 16.772Z" fill="url(#paint0_linear_2:402)"/>
<defs>
<linearGradient id="paint0_linear_2:402" x1="2.25" y1="11.9977" x2="22.2498" y2="11.9977" gradientUnits="userSpaceOnUse">
<stop stop-color="#FEAC6D"/>
<stop offset="1" stop-color="#AE61ED"/>
</linearGradient>
</defs>
</svg>
