<svg width="25" height="24" viewBox="0 0 25 24" fill="none" xmlns="http://www.w3.org/2000/svg">
<path fill-rule="evenodd" clip-rule="evenodd" d="M20.3434 2.00004C20.3434 1.82323 20.2731 1.65366 20.1481 1.52864C20.0231 1.40361 19.8535 1.33337 19.6767 1.33337H5.01005C4.83324 1.33337 4.66367 1.40361 4.53865 1.52864C4.41362 1.65366 4.34338 1.82323 4.34338 2.00004V2.66671H20.3434V2.00004ZM21.6634 6.66663H2.83671C2.5043 6.66663 2.18551 6.79867 1.95047 7.03372C1.71542 7.26876 1.58337 7.58755 1.58337 7.91996V20.08C1.58337 20.4124 1.71542 20.7312 1.95047 20.9662C2.18551 21.2012 2.5043 21.3333 2.83671 21.3333H21.6634C21.9958 21.3333 22.3146 21.2012 22.5496 20.9662C22.7847 20.7312 22.9167 20.4124 22.9167 20.08V7.91996C22.9167 7.58755 22.7847 7.26876 22.5496 7.03372C22.3146 6.79867 21.9958 6.66663 21.6634 6.66663ZM16.37 14.5533L9.85671 17.46C9.75529 17.5056 9.64408 17.525 9.5332 17.5167C9.42232 17.5083 9.31529 17.4723 9.22186 17.412C9.12844 17.3517 9.05158 17.269 8.99828 17.1714C8.94498 17.0739 8.91694 16.9645 8.91671 16.8533V11.04C8.91694 10.9288 8.94498 10.8194 8.99828 10.7218C9.05158 10.6242 9.12844 10.5415 9.22186 10.4812C9.31529 10.4209 9.42232 10.3849 9.5332 10.3766C9.64408 10.3682 9.75529 10.3877 9.85671 10.4333L16.37 13.3333C16.4883 13.3855 16.5889 13.4709 16.6595 13.5792C16.7301 13.6875 16.7677 13.814 16.7677 13.9433C16.7677 14.0726 16.7301 14.1991 16.6595 14.3074C16.5889 14.4157 16.4883 14.5011 16.37 14.5533ZM21.4681 4.19526C21.5931 4.32029 21.6634 4.48986 21.6634 4.66667V5.33333H2.99672V4.66667C2.99672 4.48986 3.06696 4.32029 3.19198 4.19526C3.31701 4.07024 3.48658 4 3.66339 4H20.9967C21.1735 4 21.3431 4.07024 21.4681 4.19526Z" fill="#67686D"/>
</svg>
