<svg width="25" height="24" viewBox="0 0 25 24" fill="none" xmlns="http://www.w3.org/2000/svg">
<g clip-path="url(#clip0_2:319)">
<path d="M7.57847 23.5507C7.10528 23.2359 6.68591 22.8469 6.33647 22.3987C5.95208 21.9361 5.59593 21.4507 5.26997 20.9452C4.50503 19.8246 3.90514 18.5998 3.48872 17.3085C2.98847 15.8085 2.74622 14.3707 2.74622 12.9645C2.74622 11.394 3.08597 10.023 3.75047 8.87099C4.24305 7.97057 4.96728 7.21812 5.84822 6.69149C6.70195 6.16122 7.6829 5.87102 8.68772 5.85149C9.03947 5.85149 9.41822 5.90249 9.82022 5.99999C10.109 6.08174 10.4607 6.21074 10.8905 6.37124C11.4372 6.58199 11.738 6.71099 11.84 6.74249C12.1602 6.85949 12.4295 6.91049 12.641 6.91049C12.8015 6.91049 13.028 6.85949 13.2852 6.78149C13.43 6.73049 13.703 6.64049 14.0937 6.47324C14.4807 6.33224 14.7852 6.21149 15.0275 6.12149C15.3987 6.01199 15.758 5.91074 16.0782 5.85974C16.4579 5.79988 16.8432 5.78403 17.2265 5.81249C17.8907 5.8559 18.5449 5.99665 19.1682 6.23024C20.1875 6.64049 21.0117 7.28099 21.6252 8.19149C21.3659 8.35131 21.1225 8.53566 20.8985 8.74199C20.4107 9.17442 19.9952 9.68208 19.6677 10.2457C19.2397 11.016 19.0178 11.8838 19.0235 12.765C19.0392 13.8472 19.3167 14.8005 19.8635 15.6247C20.2654 16.2356 20.7878 16.758 21.3987 17.16C21.7115 17.3707 21.9807 17.5155 22.2387 17.613C22.118 17.988 21.989 18.351 21.8367 18.711C21.4914 19.5183 21.0729 20.2923 20.5865 21.0232C20.153 21.6525 19.8132 22.1212 19.5552 22.4332C19.1532 22.9095 18.7662 23.2732 18.3755 23.5267C17.9457 23.8117 17.438 23.964 16.922 23.964C16.5725 23.9774 16.2231 23.9351 15.887 23.8387C15.5982 23.7412 15.3125 23.6355 15.0312 23.5147C14.7388 23.3804 14.4373 23.2669 14.129 23.175C13.3667 22.9792 12.5676 22.9779 11.8047 23.1712C11.492 23.2612 11.1912 23.3662 10.8942 23.4952C10.4765 23.6707 10.199 23.7885 10.0385 23.8387C9.71822 23.9325 9.38596 23.991 9.04996 24.0105C8.53022 24.0105 8.04572 23.862 7.56572 23.5612L7.57847 23.5507ZM14.4335 5.08949C13.754 5.42924 13.1052 5.57399 12.461 5.52674C12.3597 4.87799 12.461 4.21424 12.7302 3.48749C12.9594 2.87179 13.2981 2.30263 13.73 1.80749C14.186 1.28625 14.7393 0.859019 15.359 0.549737C16.019 0.209987 16.6482 0.0262371 17.2497 -0.000762939C17.3277 0.678737 17.2497 1.34699 17 2.06924C16.7688 2.7077 16.4308 3.30218 16.0002 3.82724C15.5608 4.34918 15.0215 4.77808 14.414 5.08874L14.4335 5.08949Z" fill="white"/>
</g>
<defs>
<clipPath id="clip0_2:319">
<rect width="24" height="24" fill="white" transform="translate(0.5)"/>
</clipPath>
</defs>
</svg>
