<svg width="24" height="24" viewBox="0 0 24 24" fill="none" xmlns="http://www.w3.org/2000/svg">
<path fill-rule="evenodd" clip-rule="evenodd" d="M16.1288 2.68583C15.3654 2.64092 14.5152 2.89904 13.7071 3.70716L9.41422 8.00005L11 9.58584L15.2929 5.29294C15.6834 4.90242 16.3166 4.90242 16.7071 5.29294C17.0976 5.68347 17.0976 6.31663 16.7071 6.70716L12.4142 11.0001L14 12.5858L18.2929 8.29294C19.101 7.48482 19.3591 6.63468 19.3142 5.87127C19.2679 5.08329 18.8922 4.30649 18.2929 3.70716C17.6936 3.10782 16.9168 2.73218 16.1288 2.68583ZM15.4142 14.0001L19.7071 9.70716C20.899 8.51528 21.3909 7.11543 21.3108 5.75383C21.2321 4.41681 20.6078 3.19361 19.7071 2.29294C18.8065 1.39228 17.5832 0.767924 16.2462 0.689276C14.8846 0.609183 13.4848 1.10107 12.2929 2.29294L8.00001 6.58584L4.70712 3.29294C4.31659 2.90242 3.68343 2.90242 3.2929 3.29294C2.90238 3.68347 2.90238 4.31663 3.2929 4.70716L10.2925 11.7067C10.2923 11.7066 10.2926 11.7069 10.2925 11.7067C10.2926 11.7069 10.2932 11.7074 10.2933 11.7076L16.2893 17.7036C16.2905 17.7048 16.2917 17.7059 16.2928 17.7071C16.294 17.7083 16.2952 17.7095 16.2964 17.7107L19.2929 20.7072C19.6834 21.0977 20.3166 21.0977 20.7071 20.7072C21.0976 20.3166 21.0976 19.6835 20.7071 19.2929L18.4142 17L22.7071 12.7072C23.0976 12.3166 23.0976 11.6835 22.7071 11.293C22.3166 10.9024 21.6834 10.9024 21.2929 11.2929L17 15.5858L15.4142 14.0001ZM6.00001 8.58584L16.4142 19.0001L13.7071 21.7072C12.0152 23.399 10.0529 24.0784 8.16004 23.9671C6.29177 23.8572 4.56857 22.9828 3.2929 21.7072C2.01724 20.4315 1.14288 18.7083 1.03298 16.84C0.92164 14.9472 1.60102 12.9848 3.2929 11.2929L6.00001 8.58584ZM10.5858 16.0001L9.00001 14.4143L7.70712 15.7072C7.39899 16.0153 7.32838 16.3029 7.34203 16.5351C7.35713 16.7918 7.48278 17.0686 7.70712 17.2929C7.93145 17.5173 8.20825 17.6429 8.46498 17.658C8.69713 17.6717 8.98478 17.6011 9.2929 17.2929L10.5858 16.0001ZM7.58579 13.0001L6.2929 14.2929C5.60102 14.9848 5.29664 15.8222 5.34548 16.6525C5.39288 17.4583 5.76724 18.1815 6.2929 18.7072C6.81857 19.2328 7.54177 19.6072 8.34754 19.6546C9.17788 19.7034 10.0152 19.399 10.7071 18.7072L12 17.4143L13.5858 19.0001L12.2929 20.2929C10.9848 21.6011 9.57213 22.0467 8.27748 21.9705C6.95825 21.8929 5.68145 21.2673 4.70711 20.2929C3.73278 19.3186 3.10713 18.0418 3.02953 16.7226C2.95338 15.4279 3.39899 14.0153 4.70712 12.7072L6.00001 11.4143L7.58579 13.0001Z" fill="white"/>
</svg>
