<svg width="80" height="80" viewBox="0 0 80 80" fill="none" xmlns="http://www.w3.org/2000/svg">
<path fill-rule="evenodd" clip-rule="evenodd" d="M1.96554 27.6372C8.78326 6.65108 31.3437 -4.87476 52.334 1.98291C73.3657 8.79927 84.8525 31.3552 78.0348 52.3826C71.1757 73.3688 48.6153 84.8533 27.625 78.0369C6.63465 71.1793 -4.85218 48.6233 1.96554 27.6372ZM37.335 69.6507C41.6736 58.9924 48.0781 50.8128 58.0361 45.8142C58.532 45.5663 58.8212 44.9879 58.6146 44.3683C56.6313 37.5932 56.5899 30.6529 57.9122 23.2995C58.0361 22.7212 57.6642 22.1428 57.1271 21.9776L46.8385 18.6313L36.55 15.2851C36.0128 15.1199 35.393 15.3678 35.1451 15.9048C31.8809 22.5972 27.7902 28.2156 22.2121 32.5119C21.7576 32.8424 21.6336 33.4621 21.8815 33.9578C27.0052 43.8312 27.3357 54.2416 24.6086 65.437C24.4847 66.0567 24.8152 66.635 25.3937 66.8416L26.7986 67.296C27.4184 67.5026 28.0795 67.1721 28.2861 66.5524L35.8475 43.2115C36.0541 42.5919 36.7153 42.2614 37.335 42.4679L38.9465 43.005L40.558 43.542C41.1778 43.7486 41.5083 44.4096 41.3017 45.0292L33.7402 68.3701C33.5336 68.9898 33.8642 69.6507 34.484 69.8573L35.8889 70.3117C36.4673 70.5183 37.0871 70.2291 37.335 69.6507ZM62.5399 19.5402L65.2257 16.07C65.5976 15.5743 65.515 14.872 65.0604 14.4589C60.6806 10.5343 55.9701 7.68386 50.9705 6.11404C45.9708 4.46159 40.5166 4.00716 34.6493 4.58552C34.0708 4.62683 33.6163 5.16388 33.6163 5.78355L33.6989 10.1625C33.7402 10.6583 34.0708 11.0714 34.5253 11.2366L47.9128 15.5743L61.259 19.9533C61.7136 20.0772 62.2507 19.9533 62.5399 19.5402ZM39.8971 30.5291C40.8889 30.0333 41.9632 29.992 43.0789 30.3638C44.236 30.7356 45.0624 31.3966 45.5996 32.3468C46.0955 33.2969 46.1781 34.2884 45.8475 35.3625C45.4756 36.4366 44.8145 37.2628 43.8227 37.7585C42.831 38.2543 41.7566 38.3369 40.6409 37.9651C39.4839 37.6346 38.6575 36.9323 38.1616 35.9408C37.6657 34.9494 37.5831 33.8753 37.9137 32.8012C38.2442 31.7684 38.9054 30.9835 39.8971 30.5291Z" fill="url(#paint0_linear_2:138)"/>
<defs>
<linearGradient id="paint0_linear_2:138" x1="0" y1="39.9928" x2="79.999" y2="39.9928" gradientUnits="userSpaceOnUse">
<stop stop-color="#FEAC6D"/>
<stop offset="1" stop-color="#AE61ED"/>
</linearGradient>
</defs>
</svg>
