<svg width="196" height="32" viewBox="0 0 196 32" fill="none" xmlns="http://www.w3.org/2000/svg">
<path d="M0.360372 7.84H4.32837V24H0.360372V7.84ZM4.55237 0.511999V4.448H0.104372V0.511999H4.55237ZM28.4361 7.424C30.2708 7.424 31.6361 7.97867 32.5321 9.088C33.4281 10.176 33.8761 11.84 33.8761 14.08V24H29.8761V14.208C29.8761 12.928 29.6628 12.0107 29.2361 11.456C28.8308 10.88 28.1481 10.592 27.1881 10.592C26.0788 10.592 25.2041 10.9867 24.5641 11.776C23.9455 12.544 23.6361 13.6107 23.6361 14.976V24H19.6361V14.208C19.6361 12.9493 19.4121 12.032 18.9641 11.456C18.5375 10.88 17.8548 10.592 16.9161 10.592C15.8068 10.592 14.9321 10.9867 14.2921 11.776C13.6521 12.544 13.3321 13.6107 13.3321 14.976V24H9.36412V12.416C9.36412 10.7093 9.27879 9.184 9.10812 7.84H12.8521L13.1401 10.4C13.6095 9.44 14.2815 8.704 15.1561 8.192C16.0521 7.68 17.0761 7.424 18.2281 7.424C20.7028 7.424 22.3135 8.448 23.0601 10.496C23.5721 9.536 24.2975 8.78933 25.2361 8.256C26.1961 7.70133 27.2628 7.424 28.4361 7.424ZM54.2614 7.84V24H50.3254V21.408C49.8347 22.304 49.1307 23.008 48.2134 23.52C47.296 24.0107 46.2507 24.256 45.0774 24.256C43.6694 24.256 42.4214 23.9147 41.3334 23.232C40.2454 22.5493 39.4027 21.5787 38.8054 20.32C38.208 19.0613 37.9094 17.6 37.9094 15.936C37.9094 14.272 38.208 12.8 38.8054 11.52C39.424 10.2187 40.2774 9.216 41.3654 8.512C42.4534 7.78667 43.6907 7.424 45.0774 7.424C46.2507 7.424 47.296 7.68 48.2134 8.192C49.1307 8.68267 49.8347 9.376 50.3254 10.272V7.84H54.2614ZM46.1654 21.12C47.488 21.12 48.512 20.6613 49.2374 19.744C49.9627 18.8267 50.3254 17.536 50.3254 15.872C50.3254 14.1653 49.9627 12.8533 49.2374 11.936C48.512 11.0187 47.4774 10.56 46.1334 10.56C44.8107 10.56 43.776 11.04 43.0294 12C42.304 12.9387 41.9414 14.2507 41.9414 15.936C41.9414 17.6 42.304 18.88 43.0294 19.776C43.776 20.672 44.8214 21.12 46.1654 21.12ZM74.8939 7.84V23.488C74.8939 26.0053 74.2005 27.9147 72.8139 29.216C71.4272 30.5173 69.3899 31.168 66.7019 31.168C64.2059 31.168 62.0085 30.6453 60.1099 29.6L60.7499 26.56C62.7125 27.584 64.6645 28.096 66.6059 28.096C69.4859 28.096 70.9259 26.6667 70.9259 23.808V20.608C70.4352 21.4827 69.7205 22.1973 68.7819 22.752C67.8432 23.2853 66.7872 23.552 65.6139 23.552C64.2059 23.552 62.9472 23.2213 61.8379 22.56C60.7499 21.8773 59.8965 20.928 59.2779 19.712C58.6805 18.4747 58.3819 17.0667 58.3819 15.488C58.3819 13.9093 58.6805 12.512 59.2779 11.296C59.8965 10.0587 60.7499 9.10933 61.8379 8.448C62.9472 7.76533 64.2059 7.424 65.6139 7.424C66.8085 7.424 67.8645 7.68 68.7819 8.192C69.7205 8.68267 70.4352 9.376 70.9259 10.272V7.84H74.8939ZM66.6699 20.416C67.9925 20.416 69.0272 19.9787 69.7739 19.104C70.5419 18.2293 70.9259 17.024 70.9259 15.488C70.9259 13.952 70.5525 12.7467 69.8059 11.872C69.0592 10.9973 68.0139 10.56 66.6699 10.56C65.3472 10.56 64.3019 10.9973 63.5339 11.872C62.7872 12.7467 62.4139 13.952 62.4139 15.488C62.4139 17.024 62.7872 18.2293 63.5339 19.104C64.3019 19.9787 65.3472 20.416 66.6699 20.416ZM79.8754 7.84H83.8434V24H79.8754V7.84ZM84.0674 0.511999V4.448H79.6194V0.511999H84.0674ZM98.1271 7.424C101.988 7.424 103.919 9.64267 103.919 14.08V24H99.9191V14.272C99.9191 12.992 99.6738 12.064 99.1831 11.488C98.6925 10.8907 97.9351 10.592 96.9111 10.592C95.6951 10.592 94.7138 10.9867 93.9671 11.776C93.2205 12.544 92.8471 13.568 92.8471 14.848V24H88.8791V12.416C88.8791 10.7093 88.7938 9.184 88.6231 7.84H92.3671L92.6551 10.496C93.2098 9.51467 93.9565 8.75733 94.8951 8.224C95.8551 7.69067 96.9325 7.424 98.1271 7.424ZM124.276 7.84V24H120.34V21.408C119.85 22.304 119.146 23.008 118.228 23.52C117.311 24.0107 116.266 24.256 115.092 24.256C113.684 24.256 112.436 23.9147 111.348 23.232C110.26 22.5493 109.418 21.5787 108.82 20.32C108.223 19.0613 107.924 17.6 107.924 15.936C107.924 14.272 108.223 12.8 108.82 11.52C109.439 10.2187 110.292 9.216 111.38 8.512C112.468 7.78667 113.706 7.424 115.092 7.424C116.266 7.424 117.311 7.68 118.228 8.192C119.146 8.68267 119.85 9.376 120.34 10.272V7.84H124.276ZM116.18 21.12C117.503 21.12 118.527 20.6613 119.252 19.744C119.978 18.8267 120.34 17.536 120.34 15.872C120.34 14.1653 119.978 12.8533 119.252 11.936C118.527 11.0187 117.492 10.56 116.148 10.56C114.826 10.56 113.791 11.04 113.044 12C112.319 12.9387 111.956 14.2507 111.956 15.936C111.956 17.6 112.319 18.88 113.044 19.776C113.791 20.672 114.836 21.12 116.18 21.12ZM137.997 7.456C138.616 7.456 139.149 7.54133 139.597 7.712L139.565 11.36C138.882 11.0827 138.178 10.944 137.453 10.944C136.088 10.944 135.042 11.3387 134.317 12.128C133.613 12.9173 133.261 13.9627 133.261 15.264V24H129.293V12.416C129.293 10.7093 129.208 9.184 129.037 7.84H132.781L133.101 10.688C133.506 9.64267 134.146 8.84267 135.021 8.288C135.896 7.73333 136.888 7.456 137.997 7.456ZM142.484 7.84H146.452V24H142.484V7.84ZM146.676 0.511999V4.448H142.228V0.511999H146.676ZM166.208 7.84V24H162.304V21.504C161.792 22.4 161.109 23.0827 160.256 23.552C159.403 24.0213 158.421 24.256 157.312 24.256C153.365 24.256 151.392 22.0373 151.392 17.6V7.84H155.36V17.632C155.36 18.8053 155.595 19.6693 156.064 20.224C156.555 20.7787 157.301 21.056 158.304 21.056C159.477 21.056 160.416 20.672 161.12 19.904C161.824 19.136 162.176 18.112 162.176 16.832V7.84H166.208ZM190.282 7.424C192.117 7.424 193.482 7.97867 194.378 9.088C195.274 10.176 195.722 11.84 195.722 14.08V24H191.722V14.208C191.722 12.928 191.509 12.0107 191.082 11.456C190.677 10.88 189.994 10.592 189.034 10.592C187.925 10.592 187.05 10.9867 186.41 11.776C185.792 12.544 185.482 13.6107 185.482 14.976V24H181.482V14.208C181.482 12.9493 181.258 12.032 180.81 11.456C180.384 10.88 179.701 10.592 178.762 10.592C177.653 10.592 176.778 10.9867 176.138 11.776C175.498 12.544 175.178 13.6107 175.178 14.976V24H171.21V12.416C171.21 10.7093 171.125 9.184 170.954 7.84H174.698L174.986 10.4C175.456 9.44 176.128 8.704 177.002 8.192C177.898 7.68 178.922 7.424 180.074 7.424C182.549 7.424 184.16 8.448 184.906 10.496C185.418 9.536 186.144 8.78933 187.082 8.256C188.042 7.70133 189.109 7.424 190.282 7.424Z" fill="url(#paint0_linear_2:42)"/>
<defs>
<linearGradient id="paint0_linear_2:42" x1="-2" y1="11.9972" x2="197.998" y2="11.9972" gradientUnits="userSpaceOnUse">
<stop stop-color="#FEAC6D"/>
<stop offset="1" stop-color="#AE61ED"/>
</linearGradient>
</defs>
</svg>
