<svg width="98" height="56" viewBox="0 0 98 56" fill="none" xmlns="http://www.w3.org/2000/svg">
<rect x="33.25" width="32" height="2" rx="1" fill="url(#paint0_linear_72:8741)"/>
<path fill-rule="evenodd" clip-rule="evenodd" d="M57.3434 17.9997C57.3434 17.8229 57.2731 17.6533 57.1481 17.5283C57.0231 17.4032 56.8535 17.333 56.6767 17.333H42.0101C41.8332 17.333 41.6637 17.4032 41.5386 17.5283C41.4136 17.6533 41.3434 17.8229 41.3434 17.9997V18.6663H57.3434V17.9997ZM58.6634 22.6665H39.8367C39.5043 22.6665 39.1855 22.7986 38.9505 23.0336C38.7154 23.2686 38.5834 23.5874 38.5834 23.9198V36.0798C38.5834 36.4122 38.7154 36.731 38.9505 36.9661C39.1855 37.2011 39.5043 37.3332 39.8367 37.3332H58.6634C58.9958 37.3332 59.3146 37.2011 59.5496 36.9661C59.7847 36.731 59.9167 36.4122 59.9167 36.0798V23.9198C59.9167 23.5874 59.7847 23.2686 59.5496 23.0336C59.3146 22.7986 58.9958 22.6665 58.6634 22.6665ZM53.37 30.5532L46.8567 33.4598C46.7553 33.5054 46.6441 33.5249 46.5332 33.5166C46.4223 33.5082 46.3153 33.4722 46.2219 33.4119C46.1284 33.3516 46.0516 33.2689 45.9983 33.1713C45.945 33.0737 45.9169 32.9644 45.9167 32.8532V27.0398C45.9169 26.9286 45.945 26.8193 45.9983 26.7217C46.0516 26.6241 46.1284 26.5414 46.2219 26.4811C46.3153 26.4208 46.4223 26.3848 46.5332 26.3765C46.6441 26.3681 46.7553 26.3876 46.8567 26.4332L53.37 29.3332C53.4883 29.3853 53.5889 29.4708 53.6595 29.5791C53.7301 29.6874 53.7677 29.8139 53.7677 29.9432C53.7677 30.0725 53.7301 30.199 53.6595 30.3073C53.5889 30.4156 53.4883 30.501 53.37 30.5532ZM58.4681 20.195C58.5931 20.32 58.6634 20.4896 58.6634 20.6664V21.3331H39.9967V20.6664C39.9967 20.4896 40.067 20.32 40.192 20.195C40.317 20.07 40.4866 19.9998 40.6634 19.9998H57.9967C58.1735 19.9998 58.3431 20.07 58.4681 20.195Z" fill="url(#paint1_linear_72:8741)"/>
<defs>
<linearGradient id="paint0_linear_72:8741" x1="33.25" y1="0.999769" x2="65.2496" y2="0.999769" gradientUnits="userSpaceOnUse">
<stop stop-color="#FEAC6D"/>
<stop offset="1" stop-color="#AE61ED"/>
</linearGradient>
<linearGradient id="paint1_linear_72:8741" x1="38.5834" y1="27.3308" x2="59.9164" y2="27.3308" gradientUnits="userSpaceOnUse">
<stop stop-color="#FEAC6D"/>
<stop offset="1" stop-color="#AE61ED"/>
</linearGradient>
</defs>
</svg>
