<svg width="98" height="56" viewBox="0 0 98 56" fill="none" xmlns="http://www.w3.org/2000/svg">
<path fill-rule="evenodd" clip-rule="evenodd" d="M57.3434 17.9999C57.3434 17.8231 57.2731 17.6535 57.1481 17.5285C57.0231 17.4035 56.8535 17.3333 56.6767 17.3333H42.0101C41.8332 17.3333 41.6637 17.4035 41.5386 17.5285C41.4136 17.6535 41.3434 17.8231 41.3434 17.9999V18.6666H57.3434V17.9999ZM58.6634 22.6667H39.8367C39.5043 22.6667 39.1855 22.7988 38.9505 23.0338C38.7154 23.2689 38.5834 23.5877 38.5834 23.9201V36.0801C38.5834 36.4125 38.7154 36.7313 38.9505 36.9663C39.1855 37.2014 39.5043 37.3334 39.8367 37.3334H58.6634C58.9958 37.3334 59.3146 37.2014 59.5496 36.9663C59.7847 36.7313 59.9167 36.4125 59.9167 36.0801V23.9201C59.9167 23.5877 59.7847 23.2689 59.5496 23.0338C59.3146 22.7988 58.9958 22.6667 58.6634 22.6667ZM53.37 30.5534L46.8567 33.4601C46.7553 33.5057 46.6441 33.5252 46.5332 33.5168C46.4223 33.5084 46.3153 33.4725 46.2219 33.4122C46.1284 33.3519 46.0516 33.2692 45.9983 33.1716C45.945 33.074 45.9169 32.9646 45.9167 32.8534V27.0401C45.9169 26.9289 45.945 26.8195 45.9983 26.7219C46.0516 26.6243 46.1284 26.5416 46.2219 26.4813C46.3153 26.421 46.4223 26.3851 46.5332 26.3767C46.6441 26.3683 46.7553 26.3878 46.8567 26.4334L53.37 29.3334C53.4883 29.3856 53.5889 29.471 53.6595 29.5793C53.7301 29.6876 53.7677 29.8141 53.7677 29.9434C53.7677 30.0727 53.7301 30.1992 53.6595 30.3075C53.5889 30.4158 53.4883 30.5013 53.37 30.5534ZM58.4681 20.1953C58.5931 20.3203 58.6634 20.4899 58.6634 20.6667V21.3333H39.9967V20.6667C39.9967 20.4899 40.067 20.3203 40.192 20.1953C40.317 20.0702 40.4866 20 40.6634 20H57.9967C58.1735 20 58.3431 20.0702 58.4681 20.1953Z" fill="#67686D"/>
</svg>
