<svg width="98" height="56" viewBox="0 0 98 56" fill="none" xmlns="http://www.w3.org/2000/svg">
<rect x="32.75" width="32" height="2" rx="1" fill="url(#paint0_linear_72:3369)"/>
<path fill-rule="evenodd" clip-rule="evenodd" d="M48.9231 36.5829C51.6667 36.5829 53.3821 34.8044 53.3821 32.2869L53.3821 28.9702L58.5572 33.2069C59.3783 33.8814 60.625 33.2965 60.625 32.2254V23.545C60.625 22.4751 59.3783 21.8877 58.5572 22.5635L53.3821 26.8001L53.3821 23.4954C53.3821 20.9791 51.6667 19.188 48.9231 19.188H41.0839C38.329 19.188 36.625 20.9791 36.625 23.4954V32.2869C36.625 34.8044 38.329 36.5829 41.0701 36.5829H48.9231Z" fill="url(#paint1_linear_72:3369)"/>
<defs>
<linearGradient id="paint0_linear_72:3369" x1="32.75" y1="0.999769" x2="64.7496" y2="0.999769" gradientUnits="userSpaceOnUse">
<stop stop-color="#FEAC6D"/>
<stop offset="1" stop-color="#AE61ED"/>
</linearGradient>
<linearGradient id="paint1_linear_72:3369" x1="36.625" y1="27.8835" x2="60.6247" y2="27.8835" gradientUnits="userSpaceOnUse">
<stop stop-color="#FEAC6D"/>
<stop offset="1" stop-color="#AE61ED"/>
</linearGradient>
</defs>
</svg>
